<mxfile host="app.diagrams.net" modified="2023-09-29T18:29:08.008Z" agent="Mozilla/5.0 (Windows NT 10.0; Win64; x64) AppleWebKit/537.36 (KHTML, like Gecko) Chrome/117.0.0.0 Safari/537.36" version="22.0.0" etag="ixstPy3VqIsVgDhVfbD_" type="github">
  <diagram name="PÃ¡gina-1" id="D_gp4M0OKDmmHX8Ix46h">
    <mxGraphModel>
      <root>
        <mxCell id="0" />
        <mxCell id="1" parent="0" />
      </root>
    </mxGraphModel>
  </diagram>
</mxfile>
